<?xml version="1.0" standalone="no"?>
<!DOCTYPE svg PUBLIC "-//W3C//DTD SVG 20010904//EN"
 "http://www.w3.org/TR/2001/REC-SVG-20010904/DTD/svg10.dtd">
<svg version="1.0" xmlns="http://www.w3.org/2000/svg"
 width="248.000000pt" height="100.000000pt" viewBox="0 0 314.000000 129.000000"
 preserveAspectRatio="xMidYMid meet">

<g transform="translate(0.000000,129.000000) scale(0.100000,-0.100000)"
fill="#000000" stroke="none">
<path d="M1780 643 c0 -49 -4 -93 -8 -99 -4 -6 -22 -14 -41 -18 -46 -8 -71
-33 -71 -67 0 -15 -4 -31 -10 -34 -6 -4 -10 13 -10 44 0 56 -16 74 -39 44 -16
-20 -16 -20 -26 11 -8 23 -17 32 -37 34 -26 3 -28 1 -28 -31 0 -53 -10 -90
-31 -117 -16 -21 -20 -23 -29 -10 -6 8 -9 36 -7 62 3 31 -1 55 -10 68 -17 24
-63 27 -63 5 0 -10 -10 -15 -30 -15 -20 0 -40 -9 -57 -26 -21 -21 -24 -32 -19
-62 4 -28 0 -46 -14 -70 -33 -54 -44 -41 -36 44 8 85 -5 114 -51 114 -16 0
-27 8 -33 26 -13 33 -53 30 -58 -4 -5 -30 14 -52 45 -52 l25 0 -7 -87 c-5 -69
-4 -92 8 -107 28 -37 88 -2 128 77 14 26 26 37 42 37 13 0 28 5 35 12 9 9 12
5 12 -18 0 -16 5 -35 12 -42 20 -20 64 -14 95 12 29 24 29 24 42 5 20 -33 53
-20 69 26 29 82 35 95 43 95 5 0 6 -20 3 -44 -7 -45 8 -68 29 -47 6 6 24 11
41 11 16 0 38 7 48 17 17 15 18 15 18 -8 0 -63 66 -67 122 -9 21 23 38 48 38
56 0 11 -9 6 -29 -15 -49 -52 -55 -43 -48 67 3 53 9 111 13 128 7 37 -21 74
-56 74 -18 0 -20 -7 -20 -87z m-21 -160 c-29 -37 -49 -43 -49 -14 0 20 13 29
44 30 16 1 17 -1 5 -16z m-389 0 c0 -12 -33 -43 -47 -43 -13 0 -18 31 -6 43 8
9 53 9 53 0z"/>
<path d="M2726 669 c-3 -34 -6 -85 -6 -114 l0 -52 -45 -1 c-48 0 -65 15 -65
57 0 26 -22 27 -45 1 -13 -14 -16 -29 -12 -55 5 -32 2 -40 -34 -76 -42 -42
-79 -52 -79 -20 0 12 9 21 25 25 29 7 49 39 40 66 -9 28 -73 27 -103 0 -22
-20 -28 -38 -35 -95 -2 -16 -5 28 -6 98 0 71 -6 137 -11 148 -7 13 -21 19 -45
19 -43 0 -70 -32 -86 -108 l-13 -56 -11 54 c-13 73 -34 72 -57 0 l-17 -55 5
82 c5 73 4 83 -15 102 -26 26 -66 28 -67 4 -1 -10 -5 -81 -9 -159 -9 -170 0
-214 45 -214 15 0 33 7 40 15 7 8 19 61 27 117 18 130 24 145 34 88 21 -114
30 -118 47 -21 14 82 30 121 50 121 11 0 13 -10 8 -47 -16 -135 -17 -162 -7
-201 10 -36 15 -42 39 -42 16 0 33 5 40 12 9 9 15 9 24 0 30 -30 114 6 165 72
12 14 24 26 27 26 3 0 3 -26 0 -57 -5 -49 -3 -62 14 -82 40 -50 141 -19 127
38 -4 14 -20 45 -36 69 -37 55 -37 64 4 60 31 -3 32 -4 37 -58 3 -30 9 -61 13
-67 13 -21 45 -15 62 11 13 19 35 113 35 149 0 4 6 7 14 7 10 0 18 -22 26 -70
13 -74 19 -85 48 -76 19 6 68 83 59 93 -3 2 -12 -8 -21 -24 -8 -16 -22 -36
-31 -43 -23 -19 -31 -4 -39 73 -6 63 -30 103 -52 89 -6 -4 -18 -20 -27 -37
-15 -29 -15 -25 -10 69 6 89 4 100 -12 112 -39 29 -52 18 -59 -47z m-236 -194
c0 -15 -38 -41 -47 -32 -2 3 0 15 7 26 12 24 40 28 40 6z m150 -126 c0 -25
-12 -30 -32 -12 -18 16 -25 63 -11 76 8 9 43 -43 43 -64z"/>
<path d="M830 694 c-1 -16 -5 -76 -10 -134 -11 -120 -4 -205 18 -227 11 -11
26 -13 56 -9 83 14 150 83 144 148 -2 27 -9 35 -34 42 l-31 9 19 44 c25 57 21
87 -13 91 -19 2 -33 -4 -48 -24 l-21 -27 0 40 c0 44 -11 58 -53 68 -25 7 -27
5 -27 -21z m140 -81 c0 -25 -44 -113 -57 -113 -3 0 -2 17 2 38 15 83 55 137
55 75z m35 -144 c12 -19 -17 -70 -54 -95 -33 -22 -36 -23 -43 -7 -3 10 -7 34
-7 54 -1 28 4 38 22 47 29 14 74 15 82 1z"/>
<path d="M1113 120 c0 -30 1 -47 4 -37 2 9 7 17 10 17 4 0 16 -8 27 -17 l21
-18 -20 24 c-14 17 -16 25 -7 28 6 3 12 9 12 15 0 6 -9 3 -19 -6 -19 -17 -20
-17 -24 16 -2 20 -4 11 -4 -22z"/>
<path d="M832 115 c1 -45 2 -46 5 -11 4 38 5 38 20 17 l15 -22 17 23 16 23 6
-40 6 -40 2 48 c1 51 -8 59 -32 25 l-15 -23 -20 25 -21 25 1 -50z"/>
<path d="M1288 150 c-5 -17 3 -80 11 -80 7 0 6 79 -2 86 -3 3 -7 0 -9 -6z"/>
<path d="M1650 154 c0 -3 7 -13 16 -22 12 -12 13 -17 4 -20 -7 -3 -16 1 -20 8
-5 8 -9 7 -14 -5 -9 -23 -8 -24 15 -18 15 4 27 0 35 -12 18 -25 18 -14 -2 35
-9 22 -20 40 -25 40 -5 0 -9 -3 -9 -6z"/>
<path d="M955 129 c-4 -6 -4 -13 -1 -16 3 -4 6 -1 6 5 0 7 9 12 20 12 15 0 20
-7 20 -25 0 -18 -5 -25 -19 -25 -11 0 -22 5 -24 10 -3 6 -4 5 -3 -2 1 -7 15
-14 29 -16 25 -3 27 0 27 32 0 31 -3 36 -24 36 -14 0 -28 -5 -31 -11z"/>
<path d="M1055 129 c-11 -16 -1 -19 13 -3 7 8 8 14 3 14 -5 0 -13 -5 -16 -11z"/>
<path d="M1200 120 c-7 -14 -7 -20 0 -20 5 0 10 7 10 15 0 18 21 20 39 3 10
-11 11 -10 6 5 -9 23 -42 22 -55 -3z"/>
<path d="M1392 103 c1 -37 1 -37 5 -6 3 23 10 33 26 36 18 4 17 5 -5 6 -26 1
-28 -2 -26 -36z"/>
<path d="M1485 129 c-4 -6 -4 -13 -1 -16 3 -4 6 -1 6 6 0 9 9 12 25 9 13 -3
22 -1 19 3 -7 13 -42 11 -49 -2z"/>
<path d="M1736 131 c-3 -4 6 -6 19 -3 22 4 25 1 25 -23 0 -24 -3 -27 -26 -22
-29 5 -19 -9 11 -16 18 -4 18 -5 -5 -15 -14 -6 -18 -11 -9 -11 25 -1 39 21 39
61 0 34 -3 38 -24 38 -14 0 -27 -4 -30 -9z"/>
<path d="M1825 120 c-8 -24 10 -50 34 -49 11 0 9 3 -6 9 -13 5 -23 16 -23 25
0 21 30 31 42 14 8 -12 9 -11 5 1 -6 24 -44 24 -52 0z"/>
<path d="M1927 133 c-3 -5 6 -8 19 -8 13 0 24 3 24 8 0 4 -9 7 -19 7 -11 0
-22 -3 -24 -7z"/>
<path d="M2016 131 c-3 -4 6 -6 19 -3 14 2 25 6 25 8 0 8 -39 4 -44 -5z"/>
<path d="M2093 108 c2 -27 6 -33 25 -32 12 0 22 -3 22 -8 0 -5 -10 -13 -22
-18 -14 -5 -17 -9 -7 -9 26 -1 39 21 38 64 -1 37 -2 38 -8 10 -9 -42 -38 -45
-45 -6 l-6 31 3 -32z"/>
<path d="M1442 95 c0 -16 2 -22 5 -12 2 9 2 23 0 30 -3 6 -5 -1 -5 -18z"/>
<path d="M1484 88 c1 -7 11 -15 22 -17 10 -2 22 -8 25 -13 4 -6 6 3 6 18 0 16
-2 23 -4 17 -6 -16 -39 -17 -46 -3 -3 6 -4 5 -3 -2z"/>
<path d="M1208 78 c6 -6 18 -8 28 -6 14 3 12 5 -9 10 -19 3 -25 2 -19 -4z"/>
<path d="M2018 78 c6 -6 18 -8 28 -6 14 3 12 5 -9 10 -19 3 -25 2 -19 -4z"/>
</g>
</svg>
